<svg width="176" height="27" viewBox="0 0 176 27" fill="none" xmlns="http://www.w3.org/2000/svg">
<g id="LOGO">
<g id="&#208;&#145;&#208;&#144;&#208;&#160;&#208;&#172;&#208;&#149;&#208;&#160;">
<path d="M0 26.6405V0.359375H17.3006V4.9406H5.51225V10.0736H9.75147C11.8138 10.0736 13.5918 10.4116 15.0855 11.0874C16.5877 11.7547 17.7461 12.7 18.5609 13.9234C19.3756 15.1468 19.783 16.5883 19.783 18.248C19.783 19.8991 19.3756 21.3577 18.5609 22.6239C17.7461 23.8815 16.5877 24.8653 15.0855 25.5754C13.5918 26.2854 11.8138 26.6405 9.75147 26.6405H0ZM5.51225 22.1747H9.75147C10.736 22.1747 11.5677 21.9951 12.2466 21.6358C12.9256 21.2679 13.439 20.7845 13.787 20.1857C14.1435 19.5783 14.3217 18.9153 14.3217 18.1966C14.3217 17.1529 13.927 16.2718 13.1377 15.5531C12.357 14.826 11.2282 14.4624 9.75147 14.4624H5.51225V22.1747Z" fill="white"/>
<path d="M26.0521 26.6405H20.1452L29.1456 0.359375H36.2491L45.2368 26.6405H39.3299L32.7992 6.36502H32.5955L26.0521 26.6405ZM25.6829 16.3103H39.6354V20.6477H25.6829V16.3103Z" fill="white"/>
<path d="M46.5824 26.6405V0.359375H56.8685C58.846 0.359375 60.5306 0.740075 61.9225 1.50147C63.3143 2.25432 64.3752 3.30231 65.1051 4.64545C65.8434 5.98004 66.2126 7.51995 66.2126 9.26518C66.2126 11.0104 65.8392 12.5503 65.0923 13.8849C64.3455 15.2195 63.2634 16.2589 61.8461 17.0032C60.4373 17.7475 58.7314 18.1196 56.7285 18.1196H50.1723V13.6667H55.8373C56.8982 13.6667 57.7724 13.4828 58.4598 13.1149C59.1557 12.7385 59.6734 12.2209 60.0129 11.5622C60.3609 10.8949 60.5349 10.1292 60.5349 9.26518C60.5349 8.39256 60.3609 7.63116 60.0129 6.98098C59.6734 6.32224 59.1557 5.81322 58.4598 5.4539C57.7639 5.08604 56.8812 4.9021 55.8119 4.9021H52.0946V26.6405H46.5824Z" fill="white"/>
<path d="M71.6287 10.0736H77.8412C79.912 10.0736 81.6942 10.4116 83.1879 11.0874C84.6901 11.7547 85.8486 12.7 86.6633 13.9234C87.4781 15.1468 87.8812 16.5883 87.8727 18.248C87.8812 19.8991 87.4781 21.3577 86.6633 22.6239C85.8486 23.8815 84.6901 24.8653 83.1879 25.5754C81.6942 26.2854 79.912 26.6405 77.8412 26.6405H68.1024V0.359375H73.602V22.1747H77.8412C78.8341 22.1747 79.6701 21.9951 80.3491 21.6358C81.028 21.2679 81.5415 20.7845 81.8894 20.1857C82.2459 19.5783 82.4199 18.9153 82.4114 18.1966C82.4199 17.1529 82.0295 16.2718 81.2402 15.5531C80.4594 14.826 79.3264 14.4624 77.8412 14.4624H71.6287V10.0736Z" fill="white"/>
<path d="M90.4691 26.6405V0.359375H108.037V4.9406H95.9813V11.2029H107.133V15.7841H95.9813V22.0592H108.088V26.6405H90.4691Z" fill="white"/>
<path d="M110.627 26.6405V0.359375H120.913C122.891 0.359375 124.575 0.740075 125.967 1.50147C127.359 2.25432 128.42 3.30231 129.15 4.64545C129.888 5.98004 130.257 7.51995 130.257 9.26518C130.257 11.0104 129.884 12.5503 129.137 13.8849C128.39 15.2195 127.308 16.2589 125.891 17.0032C124.482 17.7475 122.776 18.1196 120.773 18.1196H114.217V13.6667H119.882C120.943 13.6667 121.817 13.4828 122.504 13.1149C123.2 12.7385 123.718 12.2209 124.058 11.5622C124.405 10.8949 124.579 10.1292 124.579 9.26518C124.579 8.39256 124.405 7.63116 124.058 6.98098C123.718 6.32224 123.2 5.81322 122.504 5.4539C121.808 5.08604 120.926 4.9021 119.857 4.9021H116.139V26.6405H110.627Z" fill="white"/>
</g>
<g id="69">
<path d="M144.286 26.9999C142.945 26.9913 141.651 26.7646 140.403 26.3197C139.164 25.8749 138.052 25.152 137.068 24.151C136.083 23.1501 135.303 21.8241 134.725 20.1729C134.157 18.5218 133.873 16.4943 133.873 14.0903C133.881 11.8831 134.131 9.91116 134.624 8.17448C135.124 6.42925 135.837 4.94923 136.762 3.73441C137.696 2.5196 138.812 1.59565 140.11 0.96258C141.409 0.320952 142.864 0.000137993 144.477 0.000137993C146.217 0.000137993 147.753 0.34234 149.085 1.02674C150.418 1.70259 151.487 2.62226 152.293 3.78575C153.108 4.94923 153.6 6.25388 153.77 7.69968H148.334C148.122 6.78429 147.677 6.06567 146.998 5.54381C146.319 5.02195 145.478 4.76102 144.477 4.76102C142.78 4.76102 141.49 5.50531 140.607 6.99389C139.733 8.48247 139.287 10.5057 139.27 13.0637H139.448C139.839 12.2852 140.365 11.6222 141.027 11.0746C141.697 10.5186 142.457 10.0951 143.306 9.80422C144.163 9.50479 145.067 9.35508 146.017 9.35508C147.562 9.35508 148.937 9.72295 150.142 10.4587C151.347 11.1859 152.298 12.1868 152.994 13.4615C153.69 14.7362 154.037 16.1948 154.037 17.8374C154.037 19.6169 153.626 21.1995 152.803 22.5855C151.988 23.9714 150.846 25.0579 149.378 25.8449C147.918 26.6234 146.221 27.0084 144.286 26.9999ZM144.261 22.6368C145.109 22.6368 145.869 22.4315 146.539 22.0208C147.21 21.6102 147.736 21.0541 148.118 20.3526C148.5 19.6511 148.691 18.864 148.691 17.9914C148.691 17.1188 148.5 16.336 148.118 15.643C147.744 14.9501 147.227 14.3983 146.565 13.9876C145.903 13.577 145.147 13.3717 144.299 13.3717C143.662 13.3717 143.072 13.4914 142.529 13.731C141.995 13.9705 141.524 14.3042 141.116 14.7319C140.717 15.1597 140.403 15.6559 140.174 16.2205C139.945 16.7766 139.83 17.3712 139.83 18.0042C139.83 18.8512 140.021 19.6254 140.403 20.3269C140.794 21.0284 141.32 21.5888 141.982 22.008C142.652 22.4272 143.412 22.6368 144.261 22.6368Z" fill="#F0C631"/>
<path d="M165.586 0.000137993C166.927 0.000137993 168.217 0.226846 169.457 0.680263C170.704 1.13368 171.816 1.85658 172.792 2.84897C173.776 3.84135 174.553 5.15883 175.122 6.8014C175.699 8.43541 175.991 10.4416 176 12.8199C176 15.0527 175.75 17.0461 175.249 18.7999C174.757 20.5451 174.048 22.0294 173.123 23.2528C172.198 24.4761 171.082 25.4086 169.775 26.0502C168.468 26.6833 167.008 26.9999 165.396 26.9999C163.656 26.9999 162.12 26.6619 160.787 25.9861C159.455 25.3017 158.381 24.3735 157.566 23.2014C156.76 22.0208 156.272 20.6948 156.102 19.2233H161.538C161.75 20.1815 162.196 20.9258 162.875 21.4562C163.554 21.9781 164.394 22.239 165.396 22.239C167.093 22.239 168.383 21.4947 169.266 20.0061C170.148 18.509 170.594 16.46 170.602 13.8593H170.424C170.034 14.6293 169.507 15.2923 168.845 15.8484C168.183 16.3959 167.424 16.8194 166.567 17.1188C165.718 17.4182 164.814 17.5679 163.855 17.5679C162.319 17.5679 160.948 17.2043 159.743 16.4772C158.538 15.75 157.588 14.749 156.892 13.4743C156.196 12.1996 155.848 10.7453 155.848 9.11126C155.839 7.34892 156.242 5.77907 157.057 4.40171C157.872 3.02435 159.009 1.94641 160.469 1.1679C161.937 0.380838 163.643 -0.00841731 165.586 0.000137993ZM165.625 4.36321C164.767 4.36321 164.004 4.56853 163.333 4.97917C162.671 5.38982 162.145 5.94162 161.755 6.63458C161.373 7.32753 161.186 8.10177 161.194 8.95727C161.194 9.82133 161.381 10.5998 161.755 11.2928C162.137 11.9772 162.654 12.5247 163.308 12.9354C163.97 13.3375 164.725 13.5385 165.574 13.5385C166.21 13.5385 166.8 13.4187 167.343 13.1792C167.886 12.9396 168.357 12.6103 168.756 12.1911C169.164 11.7633 169.482 11.2714 169.711 10.7153C169.94 10.1593 170.055 9.56896 170.055 8.94444C170.046 8.1146 169.851 7.3532 169.469 6.66024C169.087 5.96728 168.561 5.4112 167.891 4.99201C167.22 4.57281 166.465 4.36321 165.625 4.36321Z" fill="#F0C631"/>
</g>
</g>
</svg>
