<svg width="132" height="27" viewBox="0 0 132 27" fill="none" xmlns="http://www.w3.org/2000/svg">
<g id="LOGO" filter="url(#filter0_d_3_431)">
<g id="&#208;&#145;&#208;&#144;&#208;&#160;&#208;&#172;&#208;&#149;&#208;&#160;">
<path d="M4 18.747V0.25293H16.189V3.47676H7.88363V7.08889H10.8704C12.3234 7.08889 13.576 7.32668 14.6284 7.80228C15.6868 8.27186 16.503 8.93709 17.077 9.79798C17.651 10.6589 17.938 11.6733 17.938 12.8412C17.938 14.0031 17.651 15.0296 17.077 15.9205C16.503 16.8055 15.6868 17.4978 14.6284 17.9975C13.576 18.4972 12.3234 18.747 10.8704 18.747H4ZM7.88363 15.6045H10.8704C11.564 15.6045 12.1499 15.4781 12.6283 15.2252C13.1067 14.9663 13.4684 14.6262 13.7136 14.2048C13.9647 13.7773 14.0903 13.3108 14.0903 12.8051C14.0903 12.0706 13.8122 11.4505 13.2561 10.9448C12.706 10.4331 11.9108 10.1773 10.8704 10.1773H7.88363V15.6045Z" fill="white"/>
<path d="M22.3549 18.747H18.1932L24.5344 0.25293H29.5391L35.8714 18.747H31.7097L27.1085 4.47912H26.965L22.3549 18.747ZM22.0948 11.4776H31.9249V14.5299H22.0948V11.4776Z" fill="white"/>
<path d="M36.8194 18.747V0.25293H44.0665C45.4597 0.25293 46.6466 0.520829 47.6272 1.05663C48.6078 1.58641 49.3552 2.32388 49.8695 3.26906C50.3897 4.20821 50.6498 5.29185 50.6498 6.51998C50.6498 7.7481 50.3867 8.83174 49.8605 9.77089C49.3343 10.71 48.5719 11.4415 47.5734 11.9653C46.5808 12.489 45.3789 12.7509 43.9678 12.7509H39.3487V9.61738H43.34C44.0874 9.61738 44.7033 9.48794 45.1876 9.22907C45.6779 8.96418 46.0426 8.59996 46.2818 8.1364C46.527 7.66683 46.6496 7.12802 46.6496 6.51998C46.6496 5.90591 46.527 5.37011 46.2818 4.91258C46.0426 4.44902 45.6779 4.09082 45.1876 3.83797C44.6973 3.5791 44.0754 3.44967 43.322 3.44967H40.703V18.747H36.8194Z" fill="white"/>
<path d="M54.4657 7.08889H58.8426C60.3016 7.08889 61.5573 7.32668 62.6097 7.80228C63.668 8.27186 64.4842 8.93709 65.0582 9.79798C65.6323 10.6589 65.9163 11.6733 65.9103 12.8412C65.9163 14.0031 65.6323 15.0296 65.0582 15.9205C64.4842 16.8055 63.668 17.4978 62.6097 17.9975C61.5573 18.4972 60.3016 18.747 58.8426 18.747H51.9813V0.25293H55.8559V15.6045H58.8426C59.5422 15.6045 60.1312 15.4781 60.6096 15.2252C61.0879 14.9663 61.4497 14.6262 61.6948 14.2048C61.946 13.7773 62.0685 13.3108 62.0626 12.8051C62.0685 12.0706 61.7935 11.4505 61.2374 10.9448C60.6873 10.4331 59.889 10.1773 58.8426 10.1773H54.4657V7.08889Z" fill="white"/>
<path d="M67.7396 18.747V0.25293H80.117V3.47676H71.6232V7.88355H79.4802V11.1074H71.6232V15.5232H80.1528V18.747H67.7396Z" fill="white"/>
<path d="M81.9417 18.747V0.25293H89.1888C90.582 0.25293 91.7689 0.520829 92.7495 1.05663C93.7302 1.58641 94.4776 2.32388 94.9918 3.26906C95.512 4.20821 95.7721 5.29185 95.7721 6.51998C95.7721 7.7481 95.509 8.83174 94.9828 9.77089C94.4567 10.71 93.6943 11.4415 92.6957 11.9653C91.7031 12.489 90.5013 12.7509 89.0901 12.7509H84.471V9.61738H88.4623C89.2097 9.61738 89.8256 9.48794 90.3099 9.22907C90.8002 8.96418 91.165 8.59996 91.4042 8.1364C91.6493 7.66683 91.7719 7.12802 91.7719 6.51998C91.7719 5.90591 91.6493 5.37011 91.4042 4.91258C91.165 4.44902 90.8002 4.09082 90.3099 3.83797C89.8196 3.5791 89.1978 3.44967 88.4444 3.44967H85.8254V18.747H81.9417Z" fill="white"/>
</g>
<g id="69">
<path d="M105.656 18.9999C104.711 18.9939 103.799 18.8343 102.92 18.5213C102.048 18.2082 101.264 17.6995 100.571 16.9952C99.877 16.2908 99.3269 15.3577 98.9203 14.1958C98.5196 13.0339 98.3193 11.6071 98.3193 9.91539C98.3253 8.36218 98.5017 6.97452 98.8485 5.75241C99.2013 4.52429 99.7036 3.48279 100.355 2.62792C101.013 1.77305 101.799 1.12287 102.714 0.677371C103.629 0.225855 104.655 9.7106e-05 105.791 9.7106e-05C107.016 9.7106e-05 108.099 0.240906 109.037 0.722524C109.976 1.19812 110.73 1.84529 111.298 2.66404C111.872 3.48279 112.218 4.40088 112.338 5.41829H108.508C108.359 4.77413 108.045 4.26843 107.567 3.9012C107.088 3.53396 106.496 3.35035 105.791 3.35035C104.595 3.35035 103.686 3.87411 103.064 4.92162C102.448 5.96914 102.134 7.39292 102.122 9.19297H102.248C102.523 8.64513 102.894 8.17856 103.36 7.79327C103.832 7.40195 104.368 7.10395 104.965 6.89927C105.569 6.68856 106.206 6.5832 106.876 6.5832C107.964 6.5832 108.933 6.84207 109.782 7.35981C110.631 7.87153 111.301 8.5759 111.791 9.47291C112.281 10.3699 112.526 11.3964 112.526 12.5522C112.526 13.8045 112.236 14.9182 111.656 15.8935C111.082 16.8687 110.278 17.6333 109.244 18.1872C108.215 18.735 107.019 19.0059 105.656 18.9999ZM105.638 15.9296C106.236 15.9296 106.771 15.7851 107.244 15.4961C107.716 15.2072 108.087 14.8159 108.356 14.3222C108.625 13.8285 108.759 13.2747 108.759 12.6606C108.759 12.0466 108.625 11.4957 108.356 11.0081C108.093 10.5204 107.728 10.1321 107.262 9.84315C106.795 9.55418 106.263 9.4097 105.665 9.4097C105.217 9.4097 104.801 9.49398 104.418 9.66255C104.042 9.83111 103.71 10.0659 103.423 10.3669C103.142 10.6679 102.92 11.0171 102.759 11.4144C102.598 11.8057 102.517 12.2241 102.517 12.6696C102.517 13.2656 102.651 13.8105 102.92 14.3041C103.196 14.7978 103.566 15.1921 104.033 15.4871C104.505 15.7821 105.04 15.9296 105.638 15.9296Z" fill="#F0C631"/>
<path d="M120.663 9.7106e-05C121.608 9.7106e-05 122.517 0.159633 123.39 0.478704C124.269 0.797776 125.052 1.30648 125.74 2.00483C126.433 2.70318 126.98 3.63029 127.381 4.78617C127.788 5.93603 127.994 7.34777 128 9.02139C128 10.5927 127.824 11.9954 127.471 13.2295C127.124 14.4576 126.625 15.5022 125.973 16.363C125.321 17.2239 124.535 17.8801 123.614 18.3317C122.693 18.7772 121.665 18.9999 120.529 18.9999C119.303 18.9999 118.221 18.7621 117.282 18.2865C116.343 17.8049 115.587 17.1517 115.013 16.3269C114.445 15.4961 114.101 14.563 113.981 13.5275H117.811C117.961 14.2018 118.274 14.7255 118.753 15.0988C119.231 15.466 119.823 15.6497 120.529 15.6497C121.725 15.6497 122.633 15.1259 123.255 14.0784C123.877 13.0248 124.191 11.583 124.197 9.75285H124.071C123.796 10.2947 123.426 10.7612 122.959 11.1525C122.493 11.5378 121.958 11.8358 121.354 12.0466C120.756 12.2573 120.119 12.3626 119.443 12.3626C118.361 12.3626 117.395 12.1068 116.546 11.595C115.697 11.0833 115.028 10.379 114.537 9.48194C114.047 8.58493 113.802 7.56149 113.802 6.41163C113.796 5.17146 114.08 4.06675 114.654 3.0975C115.228 2.12824 116.029 1.3697 117.058 0.821858C118.092 0.267997 119.294 -0.00592329 120.663 9.7106e-05ZM120.69 3.07041C120.086 3.07041 119.548 3.21489 119.076 3.50386C118.609 3.79283 118.239 4.18114 117.964 4.66878C117.694 5.15641 117.563 5.70124 117.569 6.30326C117.569 6.91131 117.7 7.45915 117.964 7.94678C118.233 8.4284 118.597 8.81369 119.058 9.10267C119.524 9.38562 120.056 9.52709 120.654 9.52709C121.103 9.52709 121.518 9.44281 121.901 9.27424C122.284 9.10568 122.616 8.8739 122.897 8.57891C123.184 8.2779 123.408 7.93173 123.569 7.54042C123.731 7.1491 123.811 6.73371 123.811 6.29423C123.805 5.71027 123.668 5.17447 123.399 4.68684C123.13 4.1992 122.759 3.80788 122.287 3.51289C121.814 3.2179 121.282 3.07041 120.69 3.07041Z" fill="#F0C631"/>
</g>
</g>
<defs>
<filter id="filter0_d_3_431" x="0" y="0" width="132" height="27" filterUnits="userSpaceOnUse" color-interpolation-filters="sRGB">
<feFlood flood-opacity="0" result="BackgroundImageFix"/>
<feColorMatrix in="SourceAlpha" type="matrix" values="0 0 0 0 0 0 0 0 0 0 0 0 0 0 0 0 0 0 127 0" result="hardAlpha"/>
<feOffset dy="4"/>
<feGaussianBlur stdDeviation="2"/>
<feComposite in2="hardAlpha" operator="out"/>
<feColorMatrix type="matrix" values="0 0 0 0 0 0 0 0 0 0 0 0 0 0 0 0 0 0 0.25 0"/>
<feBlend mode="normal" in2="BackgroundImageFix" result="effect1_dropShadow_3_431"/>
<feBlend mode="normal" in="SourceGraphic" in2="effect1_dropShadow_3_431" result="shape"/>
</filter>
</defs>
</svg>
