<svg width="104" height="16" viewBox="0 0 104 16" fill="none" xmlns="http://www.w3.org/2000/svg">
<g id="LOGO">
<g id="&#208;&#145;&#208;&#144;&#208;&#160;&#208;&#172;&#208;&#149;&#208;&#160;">
<path d="M0 15.787V0.213013H10.2231V2.92781H3.25724V5.96961H5.76223C6.98088 5.96961 8.03152 6.16986 8.91416 6.57036C9.80181 6.96579 10.4864 7.52599 10.9678 8.25095C11.4492 8.97591 11.69 9.83015 11.69 10.8137C11.69 11.7921 11.4492 12.6565 10.9678 13.4068C10.4864 14.152 9.80181 14.735 8.91416 15.1558C8.03152 15.5766 6.98088 15.787 5.76223 15.787H0ZM3.25724 13.1406H5.76223C6.34397 13.1406 6.83544 13.0342 7.23664 12.8212C7.63784 12.6033 7.94125 12.3168 8.14686 11.9619C8.35749 11.602 8.46281 11.2091 8.46281 10.7832C8.46281 10.1647 8.22961 9.64257 7.76322 9.21672C7.30184 8.7858 6.63484 8.57034 5.76223 8.57034H3.25724V13.1406Z" fill="black"/>
<path d="M15.3944 15.787H11.904L17.2224 0.213013H21.4199L26.7308 15.787H23.2404L19.3813 3.77191H19.261L15.3944 15.787ZM15.1763 9.66539H23.4209V12.2357H15.1763V9.66539Z" fill="black"/>
<path d="M27.5259 15.787V0.213013H33.6041C34.7726 0.213013 35.7681 0.438612 36.5906 0.889812C37.413 1.33594 38.0399 1.95697 38.4712 2.75291C38.9075 3.54378 39.1256 4.45632 39.1256 5.49052C39.1256 6.52473 38.905 7.43727 38.4637 8.22814C38.0223 9.01901 37.3829 9.63497 36.5454 10.076C35.7129 10.5171 34.7049 10.7376 33.5214 10.7376H29.6473V8.09886H32.9948C33.6217 8.09886 34.1382 7.98986 34.5444 7.77187C34.9557 7.5488 35.2616 7.24209 35.4622 6.85173C35.6678 6.45629 35.7706 6.00256 35.7706 5.49052C35.7706 4.97342 35.6678 4.52222 35.4622 4.13693C35.2616 3.74656 34.9557 3.44492 34.5444 3.23199C34.1332 3.014 33.6116 2.905 32.9798 2.905H30.7832V15.787H27.5259Z" fill="black"/>
<path d="M42.3261 5.96961H45.9971C47.2207 5.96961 48.2739 6.16986 49.1565 6.57036C50.0442 6.96579 50.7287 7.52599 51.2102 8.25095C51.6916 8.97591 51.9298 9.83015 51.9248 10.8137C51.9298 11.7921 51.6916 12.6565 51.2102 13.4068C50.7287 14.152 50.0442 14.735 49.1565 15.1558C48.2739 15.5766 47.2207 15.787 45.9971 15.787H40.2424V0.213013H43.4921V13.1406H45.9971C46.5838 13.1406 47.0778 13.0342 47.479 12.8212C47.8802 12.6033 48.1836 12.3168 48.3892 11.9619C48.5998 11.602 48.7027 11.2091 48.6976 10.7832C48.7027 10.1647 48.472 9.64257 48.0056 9.21672C47.5442 8.7858 46.8747 8.57034 45.9971 8.57034H42.3261V5.96961Z" fill="black"/>
<path d="M53.459 15.787V0.213013H63.84V2.92781H56.7162V6.6388H63.306V9.3536H56.7162V13.0722H63.8701V15.787H53.459Z" fill="black"/>
<path d="M65.3705 15.787V0.213013H71.4487C72.6172 0.213013 73.6127 0.438612 74.4351 0.889812C75.2576 1.33594 75.8844 1.95697 76.3157 2.75291C76.752 3.54378 76.9702 4.45632 76.9702 5.49052C76.9702 6.52473 76.7495 7.43727 76.3082 8.22814C75.8669 9.01901 75.2275 9.63497 74.39 10.076C73.5575 10.5171 72.5495 10.7376 71.3659 10.7376H67.4918V8.09886H70.8394C71.4662 8.09886 71.9828 7.98986 72.389 7.77187C72.8002 7.5488 73.1061 7.24209 73.3067 6.85173C73.5124 6.45629 73.6152 6.00256 73.6152 5.49052C73.6152 4.97342 73.5124 4.52222 73.3067 4.13693C73.1061 3.74656 72.8002 3.44492 72.389 3.23199C71.9778 3.014 71.4562 2.905 70.8243 2.905H68.6277V15.787H65.3705Z" fill="black"/>
</g>
<g id="69">
<path d="M85.2598 15.9999C84.4675 15.9948 83.7027 15.8605 82.9655 15.5969C82.2333 15.3333 81.5763 14.9049 80.9946 14.3117C80.4129 13.7186 79.9515 12.9328 79.6105 11.9543C79.2744 10.9759 79.1064 9.77438 79.1064 8.34981C79.1115 7.04183 79.2594 5.87328 79.5503 4.84414C79.8462 3.80993 80.2674 2.93288 80.8141 2.21299C81.3657 1.4931 82.0252 0.945573 82.7925 0.570418C83.5598 0.190194 84.4198 8.17735e-05 85.3727 8.17735e-05C86.4008 8.17735e-05 87.3085 0.202868 88.0958 0.608441C88.8832 1.00894 89.5151 1.55393 89.9915 2.24341C90.4729 2.93288 90.7638 3.706 90.8641 4.56277H87.652C87.5266 4.02032 87.2633 3.59447 86.8621 3.28522C86.4609 2.97597 85.9645 2.82135 85.3727 2.82135C84.3697 2.82135 83.6074 3.26241 83.0858 4.14453C82.5693 5.02665 82.306 6.22562 82.296 7.74145H82.4013C82.632 7.28011 82.9429 6.88721 83.3341 6.56275C83.7303 6.23322 84.1791 5.98228 84.6806 5.80991C85.1871 5.63247 85.7212 5.54375 86.2829 5.54375C87.1956 5.54375 88.0081 5.76175 88.7202 6.19774C89.4323 6.62866 89.994 7.22181 90.4052 7.97719C90.8165 8.73256 91.0221 9.59694 91.0221 10.5703C91.0221 11.6248 90.7789 12.5627 90.2924 13.384C89.811 14.2053 89.1364 14.8491 88.2688 15.3155C87.4063 15.7769 86.4033 16.005 85.2598 15.9999ZM85.2448 13.4144C85.7463 13.4144 86.1951 13.2927 86.5913 13.0494C86.9875 12.806 87.2984 12.4765 87.5241 12.0608C87.7498 11.6451 87.8626 11.1787 87.8626 10.6616C87.8626 10.1445 87.7498 9.68059 87.5241 9.26995C87.3035 8.85931 86.9975 8.53231 86.6064 8.28897C86.2152 8.04563 85.7689 7.92396 85.2674 7.92396C84.8912 7.92396 84.5427 7.99493 84.2217 8.13688C83.9058 8.27883 83.6275 8.47655 83.3867 8.73003C83.151 8.98351 82.9655 9.27755 82.8301 9.61215C82.6947 9.94168 82.627 10.294 82.627 10.6692C82.627 11.1711 82.7398 11.6299 82.9655 12.0456C83.1962 12.4613 83.5071 12.7934 83.8983 13.0418C84.2945 13.2902 84.7433 13.4144 85.2448 13.4144Z" fill="#F0C631"/>
<path d="M97.8465 8.17735e-05C98.6389 8.17735e-05 99.4011 0.134428 100.133 0.403119C100.871 0.671811 101.527 1.1002 102.104 1.68828C102.686 2.27636 103.145 3.05709 103.481 4.03046C103.822 4.99876 103.995 6.1876 104 7.59696C104 8.92014 103.852 10.1014 103.556 11.1407C103.265 12.1749 102.846 13.0544 102.3 13.7794C101.753 14.5044 101.094 15.057 100.321 15.4372C99.5491 15.8123 98.6865 15.9999 97.7337 15.9999C96.7056 15.9999 95.7979 15.7997 95.0105 15.3992C94.2232 14.9936 93.5888 14.4435 93.1073 13.749C92.6309 13.0494 92.3425 12.2636 92.2422 11.3916H95.4543C95.5797 11.9594 95.843 12.4005 96.2442 12.7148C96.6454 13.024 97.1419 13.1787 97.7337 13.1787C98.7366 13.1787 99.4989 12.7376 100.02 11.8555C100.542 10.9683 100.805 9.7541 100.81 8.21293H100.705C100.474 8.6692 100.163 9.06209 99.7722 9.39162C99.3811 9.71608 98.9322 9.96703 98.4257 10.1445C97.9242 10.3219 97.3901 10.4106 96.8234 10.4106C95.9157 10.4106 95.1058 10.1952 94.3937 9.76424C93.6815 9.33332 93.1199 8.74017 92.7086 7.98479C92.2974 7.22941 92.0918 6.36757 92.0918 5.39927C92.0868 4.35492 92.325 3.42464 92.8064 2.60842C93.2879 1.79221 93.9599 1.15343 94.8224 0.692091C95.69 0.225682 96.6981 -0.00498804 97.8465 8.17735e-05ZM97.8691 2.58561C97.3625 2.58561 96.9112 2.70728 96.515 2.95062C96.1238 3.19397 95.8129 3.52096 95.5822 3.9316C95.3565 4.34224 95.2462 4.80105 95.2512 5.30801C95.2512 5.82005 95.3616 6.28139 95.5822 6.69203C95.8079 7.0976 96.1138 7.42206 96.5 7.6654C96.8911 7.90368 97.3375 8.02281 97.839 8.02281C98.2151 8.02281 98.5636 7.95184 98.8846 7.80989C99.2056 7.66794 99.4839 7.47276 99.7196 7.22434C99.9603 6.97086 100.148 6.67935 100.284 6.34983C100.419 6.0203 100.487 5.67049 100.487 5.30041C100.482 4.80865 100.367 4.35745 100.141 3.94681C99.9152 3.53617 99.6042 3.20664 99.2081 2.95823C98.8119 2.70981 98.3655 2.58561 97.8691 2.58561Z" fill="#F0C631"/>
</g>
</g>
</svg>
