<?xml version="1.0" encoding="utf-8"?><svg viewBox="0 0 502.66 502.66" xmlns="http://www.w3.org/2000/svg" xmlns:xlink="http://www.w3.org/1999/xlink"><style>:root>svg{display:none}:root>svg:target{display:block}</style><svg viewBox="0 0 252 136" id="Frame1" xmlns="http://www.w3.org/2000/svg"><g clip-path="url(#aa)"><path d="M4.264 123.483c1.93.351 3.333 2.28 2.982 4.21-.351 1.929-2.28 3.332-4.21 2.982-1.93-.351-3.333-2.281-2.982-4.21.35-2.105 2.105-3.333 4.21-2.982zm0-28.305c1.93.35 3.333 2.28 2.982 4.21-.351 1.929-2.28 3.332-4.21 2.981-1.93-.35-3.333-2.28-2.982-4.21.35-2.104 2.105-3.332 4.21-2.981zm0-28.306c1.93.351 3.333 2.28 2.982 4.21-.351 1.93-2.28 3.333-4.21 2.982-1.93-.35-3.333-2.28-2.982-4.21.35-2.105 2.105-3.333 4.21-2.982zm0-28.305c1.93.35 3.333 2.28 2.982 4.21-.351 1.93-2.28 3.333-4.21 2.982-1.93-.351-3.333-2.28-2.982-4.21.35-2.105 2.105-3.333 4.21-2.982zm0-28.305c1.93.35 3.333 2.28 2.982 4.21-.351 1.93-2.28 3.333-4.21 2.982-1.93-.351-3.333-2.28-2.982-4.21.35-1.93 2.105-3.333 4.21-2.982zm24.294 113.221c1.93.351 3.332 2.28 2.982 4.21-.351 1.929-2.28 3.332-4.21 2.982-1.93-.351-3.333-2.281-2.982-4.21.35-2.105 2.105-3.333 4.21-2.982zm0-28.305c1.93.35 3.332 2.28 2.982 4.21-.351 1.929-2.28 3.332-4.21 2.981-1.93-.35-3.333-2.28-2.982-4.21.35-2.104 2.105-3.332 4.21-2.981zm0-28.306c1.93.351 3.332 2.28 2.982 4.21-.351 1.93-2.28 3.333-4.21 2.982-1.93-.35-3.333-2.28-2.982-4.21.35-2.105 2.105-3.333 4.21-2.982zm0-28.305c1.93.35 3.332 2.28 2.982 4.21-.351 1.93-2.28 3.333-4.21 2.982-1.93-.351-3.333-2.28-2.982-4.21.35-2.105 2.105-3.333 4.21-2.982zm0-28.305c1.93.35 3.332 2.28 2.982 4.21-.351 1.93-2.28 3.333-4.21 2.982-1.93-.351-3.333-2.28-2.982-4.21.35-1.93 2.105-3.333 4.21-2.982zm24.294 113.221c1.93.351 3.332 2.28 2.982 4.21-.351 1.929-2.28 3.332-4.21 2.982-1.93-.351-3.333-2.281-2.982-4.21.35-2.105 2.105-3.333 4.21-2.982zm0-28.305c1.93.35 3.332 2.28 2.982 4.21-.351 1.929-2.28 3.332-4.21 2.981-1.93-.35-3.333-2.28-2.982-4.21.35-2.104 2.105-3.332 4.21-2.981zm0-28.306c1.93.351 3.332 2.28 2.982 4.21-.351 1.93-2.28 3.333-4.21 2.982-1.93-.35-3.333-2.28-2.982-4.21.35-2.105 2.105-3.333 4.21-2.982zm0-28.305c1.93.35 3.332 2.28 2.982 4.21-.351 1.93-2.28 3.333-4.21 2.982-1.93-.351-3.333-2.28-2.982-4.21.35-2.105 2.105-3.333 4.21-2.982zm0-28.305c1.93.35 3.332 2.28 2.982 4.21-.351 1.93-2.28 3.333-4.21 2.982-1.93-.351-3.333-2.28-2.982-4.21.35-1.93 2.105-3.333 4.21-2.982zm24.294 113.221c1.93.351 3.332 2.28 2.982 4.21-.351 1.929-2.28 3.332-4.21 2.982-1.93-.351-3.333-2.281-2.982-4.21.35-2.105 2.105-3.333 4.21-2.982zm0-28.305c1.93.35 3.332 2.28 2.982 4.21-.351 1.929-2.28 3.332-4.21 2.981-1.93-.35-3.333-2.28-2.982-4.21.35-2.104 2.105-3.332 4.21-2.981zm0-28.306c1.93.351 3.332 2.28 2.982 4.21-.351 1.93-2.28 3.333-4.21 2.982-1.93-.35-3.333-2.28-2.982-4.21.35-2.105 2.105-3.333 4.21-2.982zm0-28.305c1.93.35 3.332 2.28 2.982 4.21-.351 1.93-2.28 3.333-4.21 2.982-1.93-.351-3.333-2.28-2.982-4.21.35-2.105 2.105-3.333 4.21-2.982zm0-28.305c1.93.35 3.332 2.28 2.982 4.21-.351 1.93-2.28 3.333-4.21 2.982-1.93-.351-3.333-2.28-2.982-4.21.35-1.93 2.105-3.333 4.21-2.982zm24.294 113.221c1.929.351 3.332 2.28 2.982 4.21-.351 1.929-2.281 3.332-4.21 2.982-1.93-.351-3.333-2.281-2.982-4.21.35-2.105 2.105-3.333 4.21-2.982zm0-28.305c1.929.35 3.332 2.28 2.982 4.21-.351 1.929-2.281 3.332-4.21 2.981-1.93-.35-3.333-2.28-2.982-4.21.35-2.104 2.105-3.332 4.21-2.981zm0-28.306c1.929.351 3.332 2.28 2.982 4.21-.351 1.93-2.281 3.333-4.21 2.982-1.93-.35-3.333-2.28-2.982-4.21.35-2.105 2.105-3.333 4.21-2.982zm0-28.305c1.929.35 3.332 2.28 2.982 4.21-.351 1.93-2.281 3.333-4.21 2.982-1.93-.351-3.333-2.28-2.982-4.21.35-2.105 2.105-3.333 4.21-2.982zm0-28.305c1.929.35 3.332 2.28 2.982 4.21-.351 1.93-2.281 3.333-4.21 2.982-1.93-.351-3.333-2.28-2.982-4.21.35-1.93 2.105-3.333 4.21-2.982zm24.293 113.221c1.93.351 3.333 2.28 2.982 4.21-.35 1.929-2.28 3.332-4.209 2.982-1.93-.351-3.333-2.281-2.982-4.21.35-2.105 2.105-3.333 4.209-2.982zm0-28.305c1.93.35 3.333 2.28 2.982 4.21-.35 1.929-2.28 3.332-4.209 2.981-1.93-.35-3.333-2.28-2.982-4.21.35-2.104 2.105-3.332 4.209-2.981zm0-28.306c1.93.351 3.333 2.28 2.982 4.21-.35 1.93-2.28 3.333-4.209 2.982-1.93-.35-3.333-2.28-2.982-4.21.35-2.105 2.105-3.333 4.209-2.982zm0-28.305c1.93.35 3.333 2.28 2.982 4.21-.35 1.93-2.28 3.333-4.209 2.982-1.93-.351-3.333-2.28-2.982-4.21.35-2.105 2.105-3.333 4.209-2.982zm0-28.305c1.93.35 3.333 2.28 2.982 4.21-.35 1.93-2.28 3.333-4.209 2.982-1.93-.351-3.333-2.28-2.982-4.21.35-1.93 2.105-3.333 4.209-2.982zm24.295 113.221c1.929.351 3.333 2.28 2.982 4.21-.351 1.929-2.28 3.332-4.21 2.982-1.929-.351-3.333-2.281-2.982-4.21.351-2.105 2.105-3.333 4.21-2.982zm0-28.305c1.929.35 3.333 2.28 2.982 4.21-.351 1.929-2.28 3.332-4.21 2.981-1.929-.35-3.333-2.28-2.982-4.21.351-2.104 2.105-3.332 4.21-2.981zm0-28.306c1.929.351 3.333 2.28 2.982 4.21-.351 1.93-2.28 3.333-4.21 2.982-1.929-.35-3.333-2.28-2.982-4.21.351-2.105 2.105-3.333 4.21-2.982zm0-28.305c1.929.35 3.333 2.28 2.982 4.21-.351 1.93-2.28 3.333-4.21 2.982-1.929-.351-3.333-2.28-2.982-4.21.351-2.105 2.105-3.333 4.21-2.982zm0-28.305c1.929.35 3.333 2.28 2.982 4.21-.351 1.93-2.28 3.333-4.21 2.982-1.929-.351-3.333-2.28-2.982-4.21.351-1.93 2.105-3.333 4.21-2.982zm24.294 113.221c1.929.351 3.333 2.28 2.982 4.21-.351 1.929-2.281 3.332-4.21 2.982-1.93-.351-3.333-2.281-2.982-4.21.351-2.105 2.105-3.333 4.21-2.982zm0-28.305c1.929.35 3.333 2.28 2.982 4.21-.351 1.929-2.281 3.332-4.21 2.981-1.93-.35-3.333-2.28-2.982-4.21.351-2.104 2.105-3.332 4.21-2.981zm0-28.306c1.929.351 3.333 2.28 2.982 4.21-.351 1.93-2.281 3.333-4.21 2.982-1.93-.35-3.333-2.28-2.982-4.21.351-2.105 2.105-3.333 4.21-2.982zm0-28.305c1.929.35 3.333 2.28 2.982 4.21-.351 1.93-2.281 3.333-4.21 2.982-1.93-.351-3.333-2.28-2.982-4.21.351-2.105 2.105-3.333 4.21-2.982zm0-28.305c1.929.35 3.333 2.28 2.982 4.21-.351 1.93-2.281 3.333-4.21 2.982-1.93-.351-3.333-2.28-2.982-4.21.351-1.93 2.105-3.333 4.21-2.982zm24.294 113.221c1.929.351 3.333 2.28 2.982 4.21-.351 1.929-2.281 3.332-4.21 2.982-1.93-.351-3.333-2.281-2.982-4.21.351-2.105 2.105-3.333 4.21-2.982zm0-28.305c1.929.35 3.333 2.28 2.982 4.21-.351 1.929-2.281 3.332-4.21 2.981-1.93-.35-3.333-2.28-2.982-4.21.351-2.104 2.105-3.332 4.21-2.981zm0-28.306c1.929.351 3.333 2.28 2.982 4.21-.351 1.93-2.281 3.333-4.21 2.982-1.93-.35-3.333-2.28-2.982-4.21.351-2.105 2.105-3.333 4.21-2.982zm0-28.305c1.929.35 3.333 2.28 2.982 4.21-.351 1.93-2.281 3.333-4.21 2.982-1.93-.351-3.333-2.28-2.982-4.21.351-2.105 2.105-3.333 4.21-2.982zm0-28.305c1.929.35 3.333 2.28 2.982 4.21-.351 1.93-2.281 3.333-4.21 2.982-1.93-.351-3.333-2.28-2.982-4.21.351-1.93 2.105-3.333 4.21-2.982zm24.294 113.221c1.929.351 3.333 2.28 2.982 4.21-.351 1.929-2.281 3.332-4.21 2.982-1.93-.351-3.333-2.281-2.982-4.21.351-2.105 2.105-3.333 4.21-2.982zm0-28.305c1.929.35 3.333 2.28 2.982 4.21-.351 1.929-2.281 3.332-4.21 2.981-1.93-.35-3.333-2.28-2.982-4.21.351-2.104 2.105-3.332 4.21-2.981zm0-28.306c1.929.351 3.333 2.28 2.982 4.21-.351 1.93-2.281 3.333-4.21 2.982-1.93-.35-3.333-2.28-2.982-4.21.351-2.105 2.105-3.333 4.21-2.982zm0-28.305c1.929.35 3.333 2.28 2.982 4.21-.351 1.93-2.281 3.333-4.21 2.982-1.93-.351-3.333-2.28-2.982-4.21.351-2.105 2.105-3.333 4.21-2.982zm0-28.305c1.929.35 3.333 2.28 2.982 4.21-.351 1.93-2.281 3.333-4.21 2.982-1.93-.351-3.333-2.28-2.982-4.21.351-1.93 2.105-3.333 4.21-2.982zm24.294 113.197c1.929.351 3.332 2.281 2.982 4.21-.351 1.93-2.281 3.333-4.21 2.982-1.93-.351-3.333-2.28-2.982-4.21.351-1.929 2.28-3.333 4.21-2.982zm0-28.299c1.929.35 3.332 2.28 2.982 4.21-.351 1.929-2.281 3.332-4.21 2.981-1.93-.35-3.333-2.28-2.982-4.21.351-1.929 2.28-3.332 4.21-2.981zm0-28.3c1.929.35 3.332 2.28 2.982 4.21-.351 1.93-2.281 3.333-4.21 2.982-1.93-.351-3.333-2.28-2.982-4.21.351-1.93 2.28-3.333 4.21-2.982zm0-28.3c1.929.351 3.332 2.28 2.982 4.21-.351 1.93-2.281 3.333-4.21 2.982-1.93-.35-3.333-2.28-2.982-4.21.351-1.929 2.28-3.332 4.21-2.982zm0-28.299c1.929.35 3.332 2.28 2.982 4.21-.351 1.93-2.281 3.332-4.21 2.982-1.93-.351-3.333-2.28-2.982-4.21.351-1.93 2.28-3.333 4.21-2.982z"/></g><defs><clipPath id="aa"><path d="M0 0h251.234v136H0z"/></clipPath></defs></svg><svg viewBox="0 0 252 110" id="Frame2" xmlns="http://www.w3.org/2000/svg"><g clip-path="url(#ba)"><path d="M4.264 95.178c1.93.35 3.333 2.28 2.982 4.21-.351 1.929-2.28 3.332-4.21 2.981-1.93-.35-3.333-2.28-2.982-4.21.35-2.104 2.105-3.332 4.21-2.981zm0-28.306c1.93.351 3.333 2.28 2.982 4.21-.351 1.93-2.28 3.333-4.21 2.982-1.93-.35-3.333-2.28-2.982-4.21.35-2.105 2.105-3.332 4.21-2.982zm0-28.305c1.93.351 3.333 2.28 2.982 4.21-.351 1.93-2.28 3.333-4.21 2.982-1.93-.35-3.333-2.28-2.982-4.21.35-2.105 2.105-3.333 4.21-2.982zm0-28.305c1.93.351 3.333 2.28 2.982 4.21-.351 1.93-2.28 3.333-4.21 2.982-1.93-.35-3.333-2.28-2.982-4.21.35-1.93 2.105-3.333 4.21-2.982zm24.294 84.916c1.93.35 3.332 2.28 2.982 4.21-.351 1.929-2.28 3.332-4.21 2.981-1.93-.35-3.333-2.28-2.982-4.21.35-2.104 2.105-3.332 4.21-2.981zm0-28.306c1.93.351 3.332 2.28 2.982 4.21-.351 1.93-2.28 3.333-4.21 2.982-1.93-.35-3.333-2.28-2.982-4.21.35-2.105 2.105-3.332 4.21-2.982zm0-28.305c1.93.351 3.332 2.28 2.982 4.21-.351 1.93-2.28 3.333-4.21 2.982-1.93-.35-3.333-2.28-2.982-4.21.35-2.105 2.105-3.333 4.21-2.982zm0-28.305c1.93.351 3.332 2.28 2.982 4.21-.351 1.93-2.28 3.333-4.21 2.982-1.93-.35-3.333-2.28-2.982-4.21.35-1.93 2.105-3.333 4.21-2.982zm24.294 84.916c1.93.35 3.332 2.28 2.982 4.21-.351 1.929-2.28 3.332-4.21 2.981-1.93-.35-3.333-2.28-2.982-4.21.35-2.104 2.105-3.332 4.21-2.981zm0-28.306c1.93.351 3.332 2.28 2.982 4.21-.351 1.93-2.28 3.333-4.21 2.982-1.93-.35-3.333-2.28-2.982-4.21.35-2.105 2.105-3.332 4.21-2.982zm0-28.305c1.93.351 3.332 2.28 2.982 4.21-.351 1.93-2.28 3.333-4.21 2.982-1.93-.35-3.333-2.28-2.982-4.21.35-2.105 2.105-3.333 4.21-2.982zm0-28.305c1.93.351 3.332 2.28 2.982 4.21-.351 1.93-2.28 3.333-4.21 2.982-1.93-.35-3.333-2.28-2.982-4.21.35-1.93 2.105-3.333 4.21-2.982zm24.294 84.916c1.93.35 3.332 2.28 2.982 4.21-.351 1.929-2.28 3.332-4.21 2.981-1.93-.35-3.333-2.28-2.982-4.21.35-2.104 2.105-3.332 4.21-2.981zm0-28.306c1.93.351 3.332 2.28 2.982 4.21-.351 1.93-2.28 3.333-4.21 2.982-1.93-.35-3.333-2.28-2.982-4.21.35-2.105 2.105-3.332 4.21-2.982zm0-28.305c1.93.351 3.332 2.28 2.982 4.21-.351 1.93-2.28 3.333-4.21 2.982-1.93-.35-3.333-2.28-2.982-4.21.35-2.105 2.105-3.333 4.21-2.982zm0-28.305c1.93.351 3.332 2.28 2.982 4.21-.351 1.93-2.28 3.333-4.21 2.982-1.93-.35-3.333-2.28-2.982-4.21.35-1.93 2.105-3.333 4.21-2.982zm24.294 84.916c1.929.35 3.332 2.28 2.982 4.21-.351 1.929-2.281 3.332-4.21 2.981-1.93-.35-3.333-2.28-2.982-4.21.35-2.104 2.105-3.332 4.21-2.981zm0-28.306c1.929.351 3.332 2.28 2.982 4.21-.351 1.93-2.281 3.333-4.21 2.982-1.93-.35-3.333-2.28-2.982-4.21.35-2.105 2.105-3.332 4.21-2.982zm0-28.305c1.929.351 3.332 2.28 2.982 4.21-.351 1.93-2.281 3.333-4.21 2.982-1.93-.35-3.333-2.28-2.982-4.21.35-2.105 2.105-3.333 4.21-2.982zm0-28.305c1.929.351 3.332 2.28 2.982 4.21-.351 1.93-2.281 3.333-4.21 2.982-1.93-.35-3.333-2.28-2.982-4.21.35-1.93 2.105-3.333 4.21-2.982zm24.293 84.916c1.93.35 3.333 2.28 2.982 4.21-.35 1.929-2.28 3.332-4.209 2.981-1.93-.35-3.333-2.28-2.982-4.21.35-2.104 2.105-3.332 4.209-2.981zm0-28.306c1.93.351 3.333 2.28 2.982 4.21-.35 1.93-2.28 3.333-4.209 2.982-1.93-.35-3.333-2.28-2.982-4.21.35-2.105 2.105-3.332 4.209-2.982zm0-28.305c1.93.351 3.333 2.28 2.982 4.21-.35 1.93-2.28 3.333-4.209 2.982-1.93-.35-3.333-2.28-2.982-4.21.35-2.105 2.105-3.333 4.209-2.982zm0-28.305c1.93.351 3.333 2.28 2.982 4.21-.35 1.93-2.28 3.333-4.209 2.982-1.93-.35-3.333-2.28-2.982-4.21.35-1.93 2.105-3.333 4.209-2.982zm24.295 84.916c1.929.35 3.333 2.28 2.982 4.21-.351 1.929-2.28 3.332-4.21 2.981-1.929-.35-3.333-2.28-2.982-4.21.351-2.104 2.105-3.332 4.21-2.981zm0-28.306c1.929.351 3.333 2.28 2.982 4.21-.351 1.93-2.28 3.333-4.21 2.982-1.929-.35-3.333-2.28-2.982-4.21.351-2.105 2.105-3.332 4.21-2.982zm0-28.305c1.929.351 3.333 2.28 2.982 4.21-.351 1.93-2.28 3.333-4.21 2.982-1.929-.35-3.333-2.28-2.982-4.21.351-2.105 2.105-3.333 4.21-2.982zm0-28.305c1.929.351 3.333 2.28 2.982 4.21-.351 1.93-2.28 3.333-4.21 2.982-1.929-.35-3.333-2.28-2.982-4.21.351-1.93 2.105-3.333 4.21-2.982zm24.294 84.916c1.929.35 3.333 2.28 2.982 4.21-.351 1.929-2.281 3.332-4.21 2.981-1.93-.35-3.333-2.28-2.982-4.21.351-2.104 2.105-3.332 4.21-2.981zm0-28.306c1.929.351 3.333 2.28 2.982 4.21-.351 1.93-2.281 3.333-4.21 2.982-1.93-.35-3.333-2.28-2.982-4.21.351-2.105 2.105-3.332 4.21-2.982zm0-28.305c1.929.351 3.333 2.28 2.982 4.21-.351 1.93-2.281 3.333-4.21 2.982-1.93-.35-3.333-2.28-2.982-4.21.351-2.105 2.105-3.333 4.21-2.982zm0-28.305c1.929.351 3.333 2.28 2.982 4.21-.351 1.93-2.281 3.333-4.21 2.982-1.93-.35-3.333-2.28-2.982-4.21.351-1.93 2.105-3.333 4.21-2.982zm24.294 84.916c1.929.35 3.333 2.28 2.982 4.21-.351 1.929-2.281 3.332-4.21 2.981-1.93-.35-3.333-2.28-2.982-4.21.351-2.104 2.105-3.332 4.21-2.981zm0-28.306c1.929.351 3.333 2.28 2.982 4.21-.351 1.93-2.281 3.333-4.21 2.982-1.93-.35-3.333-2.28-2.982-4.21.351-2.105 2.105-3.332 4.21-2.982zm0-28.305c1.929.351 3.333 2.28 2.982 4.21-.351 1.93-2.281 3.333-4.21 2.982-1.93-.35-3.333-2.28-2.982-4.21.351-2.105 2.105-3.333 4.21-2.982zm0-28.305c1.929.351 3.333 2.28 2.982 4.21-.351 1.93-2.281 3.333-4.21 2.982-1.93-.35-3.333-2.28-2.982-4.21.351-1.93 2.105-3.333 4.21-2.982zm24.294 84.916c1.929.35 3.333 2.28 2.982 4.21-.351 1.929-2.281 3.332-4.21 2.981-1.93-.35-3.333-2.28-2.982-4.21.351-2.104 2.105-3.332 4.21-2.981zm0-28.306c1.929.351 3.333 2.28 2.982 4.21-.351 1.93-2.281 3.333-4.21 2.982-1.93-.35-3.333-2.28-2.982-4.21.351-2.105 2.105-3.332 4.21-2.982zm0-28.305c1.929.351 3.333 2.28 2.982 4.21-.351 1.93-2.281 3.333-4.21 2.982-1.93-.35-3.333-2.28-2.982-4.21.351-2.105 2.105-3.333 4.21-2.982zm0-28.305c1.929.351 3.333 2.28 2.982 4.21-.351 1.93-2.281 3.333-4.21 2.982-1.93-.35-3.333-2.28-2.982-4.21.351-1.93 2.105-3.333 4.21-2.982zm24.294 84.898c1.929.35 3.332 2.28 2.982 4.21-.351 1.929-2.281 3.332-4.21 2.981-1.93-.35-3.333-2.28-2.982-4.21.351-1.929 2.28-3.332 4.21-2.981zm0-28.3c1.929.351 3.332 2.28 2.982 4.21-.351 1.93-2.281 3.333-4.21 2.982-1.93-.35-3.333-2.28-2.982-4.21.351-1.93 2.28-3.332 4.21-2.982zm0-28.3c1.929.351 3.332 2.28 2.982 4.21-.351 1.93-2.281 3.333-4.21 2.982-1.93-.35-3.333-2.28-2.982-4.21.351-1.929 2.28-3.332 4.21-2.982zm0-28.299c1.929.351 3.332 2.28 2.982 4.21-.351 1.93-2.281 3.333-4.21 2.982-1.93-.35-3.333-2.28-2.982-4.21.351-1.93 2.28-3.333 4.21-2.982z"/></g><defs><clipPath id="ba"><path d="M0 0h251.234v110H0z"/></clipPath></defs></svg><svg viewBox="0 0 176 27" id="LOGO2" xmlns="http://www.w3.org/2000/svg"><path d="M0 26.64V.36h17.3v4.58H5.513v5.134h4.24c2.062 0 3.84.338 5.333 1.013 1.503.668 2.661 1.613 3.476 2.836.815 1.224 1.222 2.665 1.222 4.325 0 1.651-.407 3.11-1.222 4.376-.815 1.258-1.973 2.241-3.476 2.951-1.493.71-3.271 1.066-5.334 1.066H0zm5.512-4.465h4.24c.984 0 1.816-.18 2.495-.54.679-.367 1.192-.85 1.54-1.45a3.86 3.86 0 00.535-1.988c0-1.044-.395-1.925-1.184-2.644-.781-.727-1.91-1.09-3.387-1.09H5.512v7.712zm20.54 4.465h-5.907l9-26.28h7.104l8.988 26.28H39.33L32.8 6.366h-.204l-6.544 20.276zm-.37-10.33h13.953v4.338H25.683V16.31zm20.9 10.33V.36h10.286c1.978 0 3.663.38 5.054 1.141 1.392.753 2.453 1.801 3.183 3.144.738 1.335 1.108 2.875 1.108 4.62s-.374 3.285-1.12 4.62c-.748 1.335-1.83 2.374-3.247 3.118-1.409.744-3.115 1.117-5.117 1.117h-6.557v-4.453h5.665c1.061 0 1.935-.184 2.623-.552.696-.377 1.213-.894 1.553-1.553.348-.667.522-1.433.522-2.297 0-.872-.174-1.634-.522-2.284-.34-.659-.857-1.168-1.553-1.527-.696-.368-1.579-.552-2.648-.552h-3.717V26.64h-5.513zm25.047-16.566h6.212c2.071 0 3.853.338 5.347 1.013 1.502.668 2.66 1.613 3.475 2.836.815 1.224 1.218 2.665 1.21 4.325.008 1.651-.395 3.11-1.21 4.376-.814 1.258-1.973 2.241-3.475 2.951-1.494.71-3.276 1.066-5.347 1.066h-9.739V.358h5.5v21.816h4.24c.992 0 1.828-.18 2.507-.54.679-.367 1.192-.85 1.54-1.45.357-.607.53-1.27.522-1.988.009-1.044-.382-1.925-1.17-2.644-.782-.727-1.915-1.09-3.4-1.09H71.63v-4.39zM90.47 26.64V.36h17.567v4.58H95.981v6.263h11.152v4.581H95.981v6.275h12.107v4.581H90.469zm20.157 0V.36h10.286c1.978 0 3.662.38 5.054 1.141 1.392.753 2.453 1.801 3.183 3.144.738 1.335 1.107 2.875 1.107 4.62s-.373 3.285-1.12 4.62c-.747 1.335-1.829 2.374-3.246 3.118-1.409.744-3.115 1.117-5.118 1.117h-6.556v-4.453h5.665c1.061 0 1.935-.184 2.622-.552.696-.377 1.214-.894 1.554-1.553.347-.667.521-1.433.521-2.297 0-.872-.174-1.634-.521-2.284-.34-.659-.858-1.168-1.554-1.527-.696-.368-1.578-.552-2.647-.552h-3.718V26.64h-5.512zM144.286 27a11.703 11.703 0 01-3.883-.68c-1.239-.445-2.351-1.168-3.335-2.169-.985-1-1.765-2.327-2.343-3.978-.568-1.651-.852-3.679-.852-6.083.008-2.207.258-4.179.751-5.916.5-1.745 1.213-3.225 2.138-4.44.934-1.214 2.05-2.138 3.348-2.771C141.409.32 142.864 0 144.477 0c1.74 0 3.276.342 4.608 1.027 1.333.676 2.402 1.595 3.208 2.759A8.428 8.428 0 01153.77 7.7h-5.436c-.212-.916-.657-1.634-1.336-2.156-.679-.522-1.52-.783-2.521-.783-1.697 0-2.987.744-3.87 2.233-.874 1.488-1.32 3.512-1.337 6.07h.178a6.109 6.109 0 011.579-1.99 7.2 7.2 0 012.279-1.27 8.146 8.146 0 012.711-.449c1.545 0 2.92.368 4.125 1.104 1.205.727 2.156 1.728 2.852 3.002.696 1.275 1.043 2.734 1.043 4.376 0 1.78-.411 3.363-1.234 4.748-.815 1.386-1.957 2.473-3.425 3.26-1.46.778-3.157 1.163-5.092 1.155zm-.025-4.363c.848 0 1.608-.206 2.278-.616a4.368 4.368 0 001.579-1.668c.382-.702.573-1.489.573-2.362 0-.872-.191-1.655-.573-2.348a4.336 4.336 0 00-1.553-1.655c-.662-.411-1.418-.616-2.266-.616-.637 0-1.227.12-1.77.359a4.457 4.457 0 00-1.413 1 4.811 4.811 0 00-.942 1.49 4.638 4.638 0 00-.344 1.783c0 .847.191 1.621.573 2.323a4.61 4.61 0 001.579 1.681c.67.42 1.43.629 2.279.629zM165.586 0c1.341 0 2.631.227 3.871.68 1.247.454 2.359 1.177 3.335 2.169.984.992 1.761 2.31 2.33 3.952.577 1.634.869 3.64.878 6.019 0 2.233-.25 4.226-.751 5.98-.492 1.745-1.201 3.23-2.126 4.453-.925 1.223-2.041 2.156-3.348 2.797-1.307.633-2.767.95-4.379.95-1.74 0-3.276-.338-4.609-1.014-1.332-.684-2.406-1.613-3.221-2.785-.806-1.18-1.294-2.506-1.464-3.978h5.436c.212.959.658 1.703 1.337 2.233.679.522 1.519.783 2.521.783 1.697 0 2.987-.744 3.87-2.233.882-1.497 1.328-3.546 1.336-6.147h-.178a6.278 6.278 0 01-1.579 1.99 7.333 7.333 0 01-2.278 1.27 8.08 8.08 0 01-2.712.449c-1.536 0-2.907-.364-4.112-1.09-1.205-.728-2.155-1.729-2.851-3.004-.696-1.274-1.044-2.729-1.044-4.363-.009-1.762.394-3.332 1.209-4.71.815-1.377 1.952-2.455 3.412-3.233C161.937.38 163.643-.008 165.586 0zm.039 4.363c-.858 0-1.621.206-2.292.616a4.525 4.525 0 00-1.578 1.656c-.382.693-.569 1.467-.561 2.322 0 .864.187 1.643.561 2.336a4.489 4.489 0 001.553 1.642c.662.402 1.417.604 2.266.604a4.335 4.335 0 003.182-1.348c.408-.428.726-.92.955-1.476a4.605 4.605 0 00.344-1.77 4.762 4.762 0 00-.586-2.285 4.498 4.498 0 00-1.578-1.668c-.671-.42-1.426-.629-2.266-.629z"/></svg><svg viewBox="0 0 502.664 502.664" id="icon" xmlns="http://www.w3.org/2000/svg"><path d="M153.821 358.226L0 274.337v-46.463l153.821-83.414v54.574L46.636 250.523l107.185 53.431v54.272zm26.273 29.358L282.103 115.08h32.227L212.084 387.584h-31.99zm168.749-29.358v-54.272l107.164-52.999-107.164-52.59v-53.927l153.821 83.522v46.183l-153.821 84.083z"/></svg></svg>